<mxfile host="app.diagrams.net" agent="Mozilla/5.0 (Windows NT 10.0; Win64; x64) AppleWebKit/537.36 (KHTML, like Gecko) Chrome/129.0.0.0 Safari/537.36" version="24.7.14">
  <diagram name="Page-1" id="pq1G8Q0fCmcGaI1Zxgs7">
    <mxGraphModel dx="1050" dy="603" grid="1" gridSize="10" guides="1" tooltips="1" connect="1" arrows="1" fold="1" page="1" pageScale="1" pageWidth="850" pageHeight="1100" math="0" shadow="0">
      <root>
        <mxCell id="0" />
        <mxCell id="1" parent="0" />
        <mxCell id="c7uu-gshj85BzMG4fisN-1" value="AnggotaUniversitas" style="swimlane;whiteSpace=wrap;html=1;" vertex="1" parent="1">
          <mxGeometry x="325" y="100" width="200" height="200" as="geometry" />
        </mxCell>
        <mxCell id="c7uu-gshj85BzMG4fisN-3" value="+nama : String" style="text;html=1;align=center;verticalAlign=middle;resizable=0;points=[];autosize=1;strokeColor=none;fillColor=none;" vertex="1" parent="c7uu-gshj85BzMG4fisN-1">
          <mxGeometry y="20" width="100" height="30" as="geometry" />
        </mxCell>
        <mxCell id="c7uu-gshj85BzMG4fisN-4" value="+jenisKelamin : String" style="text;html=1;align=center;verticalAlign=middle;resizable=0;points=[];autosize=1;strokeColor=none;fillColor=none;" vertex="1" parent="c7uu-gshj85BzMG4fisN-1">
          <mxGeometry y="40" width="140" height="30" as="geometry" />
        </mxCell>
        <mxCell id="c7uu-gshj85BzMG4fisN-5" value="+umur : int" style="text;html=1;align=center;verticalAlign=middle;resizable=0;points=[];autosize=1;strokeColor=none;fillColor=none;" vertex="1" parent="c7uu-gshj85BzMG4fisN-1">
          <mxGeometry y="60" width="80" height="30" as="geometry" />
        </mxCell>
        <mxCell id="c7uu-gshj85BzMG4fisN-27" value="&lt;span style=&quot;text-align: left;&quot;&gt;+AnggotaUniversitas(nama : String,&amp;nbsp;&lt;/span&gt;&lt;div style=&quot;text-align: left;&quot;&gt;jenisKelamin : String,&amp;nbsp;&lt;/div&gt;&lt;div style=&quot;text-align: left;&quot;&gt;umur : int)&lt;/div&gt;" style="text;html=1;align=center;verticalAlign=middle;resizable=0;points=[];autosize=1;strokeColor=none;fillColor=none;" vertex="1" parent="c7uu-gshj85BzMG4fisN-1">
          <mxGeometry x="-5" y="100" width="220" height="60" as="geometry" />
        </mxCell>
        <mxCell id="c7uu-gshj85BzMG4fisN-28" value="+getInfo() : String" style="text;html=1;align=center;verticalAlign=middle;resizable=0;points=[];autosize=1;strokeColor=none;fillColor=none;" vertex="1" parent="c7uu-gshj85BzMG4fisN-1">
          <mxGeometry x="-5" y="160" width="120" height="30" as="geometry" />
        </mxCell>
        <mxCell id="c7uu-gshj85BzMG4fisN-2" value="" style="endArrow=none;html=1;rounded=0;entryX=1;entryY=0.5;entryDx=0;entryDy=0;exitX=0;exitY=0.5;exitDx=0;exitDy=0;" edge="1" parent="1" source="c7uu-gshj85BzMG4fisN-1" target="c7uu-gshj85BzMG4fisN-1">
          <mxGeometry width="50" height="50" relative="1" as="geometry">
            <mxPoint x="310" y="240" as="sourcePoint" />
            <mxPoint x="360" y="190" as="targetPoint" />
          </mxGeometry>
        </mxCell>
        <mxCell id="c7uu-gshj85BzMG4fisN-6" value="Dosen" style="swimlane;whiteSpace=wrap;html=1;" vertex="1" parent="1">
          <mxGeometry x="100" y="360" width="200" height="200" as="geometry" />
        </mxCell>
        <mxCell id="c7uu-gshj85BzMG4fisN-7" value="+NIDN : int" style="text;html=1;align=center;verticalAlign=middle;resizable=0;points=[];autosize=1;strokeColor=none;fillColor=none;" vertex="1" parent="c7uu-gshj85BzMG4fisN-6">
          <mxGeometry y="30" width="80" height="30" as="geometry" />
        </mxCell>
        <mxCell id="c7uu-gshj85BzMG4fisN-18" value="+Dosen(nama : String,&amp;nbsp;&lt;div&gt;jenisKelamin : String,&amp;nbsp;&lt;/div&gt;&lt;div&gt;umur : int, NIDN : int)&lt;/div&gt;" style="text;html=1;align=left;verticalAlign=middle;resizable=0;points=[];autosize=1;strokeColor=none;fillColor=none;" vertex="1" parent="c7uu-gshj85BzMG4fisN-6">
          <mxGeometry x="10" y="100" width="150" height="60" as="geometry" />
        </mxCell>
        <mxCell id="c7uu-gshj85BzMG4fisN-20" value="+getInfo() : String" style="text;html=1;align=center;verticalAlign=middle;resizable=0;points=[];autosize=1;strokeColor=none;fillColor=none;" vertex="1" parent="c7uu-gshj85BzMG4fisN-6">
          <mxGeometry y="160" width="120" height="30" as="geometry" />
        </mxCell>
        <mxCell id="c7uu-gshj85BzMG4fisN-10" value="" style="endArrow=none;html=1;rounded=0;entryX=1;entryY=0.5;entryDx=0;entryDy=0;exitX=0;exitY=0.5;exitDx=0;exitDy=0;" edge="1" parent="1" source="c7uu-gshj85BzMG4fisN-6" target="c7uu-gshj85BzMG4fisN-6">
          <mxGeometry width="50" height="50" relative="1" as="geometry">
            <mxPoint x="110" y="470" as="sourcePoint" />
            <mxPoint x="160" y="420" as="targetPoint" />
          </mxGeometry>
        </mxCell>
        <mxCell id="c7uu-gshj85BzMG4fisN-11" value="Mahasiswa" style="swimlane;whiteSpace=wrap;html=1;" vertex="1" parent="1">
          <mxGeometry x="540" y="360" width="200" height="200" as="geometry" />
        </mxCell>
        <mxCell id="c7uu-gshj85BzMG4fisN-12" value="+NIM : int" style="text;html=1;align=center;verticalAlign=middle;resizable=0;points=[];autosize=1;strokeColor=none;fillColor=none;" vertex="1" parent="c7uu-gshj85BzMG4fisN-11">
          <mxGeometry y="30" width="80" height="30" as="geometry" />
        </mxCell>
        <mxCell id="c7uu-gshj85BzMG4fisN-21" value="&lt;span style=&quot;text-align: left;&quot;&gt;+Mahasiswa(nama : String,&amp;nbsp;&lt;/span&gt;&lt;div style=&quot;text-align: left;&quot;&gt;jenisKelamin : String,&amp;nbsp;&lt;/div&gt;&lt;div style=&quot;text-align: left;&quot;&gt;umur : int, NIM : int)&lt;/div&gt;" style="text;html=1;align=center;verticalAlign=middle;resizable=0;points=[];autosize=1;strokeColor=none;fillColor=none;" vertex="1" parent="c7uu-gshj85BzMG4fisN-11">
          <mxGeometry y="100" width="170" height="60" as="geometry" />
        </mxCell>
        <mxCell id="c7uu-gshj85BzMG4fisN-26" value="+getInfo() : String" style="text;html=1;align=center;verticalAlign=middle;resizable=0;points=[];autosize=1;strokeColor=none;fillColor=none;" vertex="1" parent="c7uu-gshj85BzMG4fisN-11">
          <mxGeometry y="160" width="120" height="30" as="geometry" />
        </mxCell>
        <mxCell id="c7uu-gshj85BzMG4fisN-15" value="" style="endArrow=none;html=1;rounded=0;entryX=1;entryY=0.5;entryDx=0;entryDy=0;exitX=0;exitY=0.5;exitDx=0;exitDy=0;" edge="1" parent="1" source="c7uu-gshj85BzMG4fisN-11" target="c7uu-gshj85BzMG4fisN-11">
          <mxGeometry width="50" height="50" relative="1" as="geometry">
            <mxPoint x="465" y="470" as="sourcePoint" />
            <mxPoint x="515" y="420" as="targetPoint" />
          </mxGeometry>
        </mxCell>
        <mxCell id="c7uu-gshj85BzMG4fisN-16" value="" style="endArrow=classic;html=1;rounded=0;entryX=0;entryY=0.5;entryDx=0;entryDy=0;exitX=0.5;exitY=0;exitDx=0;exitDy=0;" edge="1" parent="1" source="c7uu-gshj85BzMG4fisN-6" target="c7uu-gshj85BzMG4fisN-1">
          <mxGeometry width="50" height="50" relative="1" as="geometry">
            <mxPoint x="210" y="360" as="sourcePoint" />
            <mxPoint x="320" y="210" as="targetPoint" />
            <Array as="points">
              <mxPoint x="200" y="200" />
            </Array>
          </mxGeometry>
        </mxCell>
        <mxCell id="c7uu-gshj85BzMG4fisN-17" value="" style="endArrow=classic;html=1;rounded=0;entryX=1;entryY=0.5;entryDx=0;entryDy=0;exitX=0.5;exitY=0;exitDx=0;exitDy=0;" edge="1" parent="1" source="c7uu-gshj85BzMG4fisN-11" target="c7uu-gshj85BzMG4fisN-1">
          <mxGeometry width="50" height="50" relative="1" as="geometry">
            <mxPoint x="400" y="370" as="sourcePoint" />
            <mxPoint x="450" y="320" as="targetPoint" />
            <Array as="points">
              <mxPoint x="640" y="200" />
            </Array>
          </mxGeometry>
        </mxCell>
      </root>
    </mxGraphModel>
  </diagram>
</mxfile>
